<svg xmlns="http://www.w3.org/2000/svg" version="1.1" viewBox="-5.0 -10.0 110.0 135.0">
 <path d="m50 8.2891c-11.516 0-21.945 4.6719-29.492 12.215-7.5469 7.5469-12.215 17.977-12.215 29.492s4.6719 21.945 12.215 29.492c7.5469 7.5469 17.977 12.215 29.492 12.215s21.945-4.6719 29.492-12.215c7.5469-7.5469 12.215-17.977 12.215-29.492s-4.6719-21.945-12.215-29.492c-7.5469-7.5469-17.977-12.215-29.492-12.215zm0-4.5703c12.777 0 24.348 5.1797 32.723 13.559 8.375 8.375 13.559 19.945 13.559 32.723s-5.1797 24.348-13.559 32.723c-8.375 8.375-19.945 13.559-32.723 13.559s-24.348-5.1797-32.723-13.559c-8.375-8.375-13.559-19.945-13.559-32.723s5.1797-24.348 13.559-32.723c8.375-8.375 19.945-13.559 32.723-13.559zm-32.641 67.102c-3.8438-6.0117-6.0703-13.156-6.0703-20.82 0-10.688 4.3359-20.367 11.34-27.371s16.684-11.34 27.371-11.34 20.367 4.3359 27.371 11.34 11.34 16.684 11.34 27.371c0 7.6641-2.2305 14.809-6.0703 20.82-3.1562-5.3008-7.5703-9.7695-12.832-12.996-3.6875-2.2578-7.7891-3.9062-12.164-4.8047 0.84375-0.53906 1.6289-1.1641 2.3359-1.8633l0.089843-0.082031c2.5781-2.5781 4.1719-6.1367 4.1719-10.066 0-3.9336-1.5977-7.4922-4.1797-10.07-2.5781-2.5781-6.1367-4.1719-10.066-4.1719-3.9336 0-7.4922 1.5977-10.07 4.1797-2.5781 2.5781-4.1719 6.1367-4.1719 10.066 0 3.9297 1.5977 7.4922 4.1719 10.066 0.73047 0.73047 1.5469 1.3828 2.4219 1.9453-4.3711 0.89844-8.4727 2.543-12.16 4.8047-5.2617 3.2266-9.6758 7.6953-12.832 12.992zm63.375 2.7109c-2.9414-5.4062-7.2617-9.9492-12.484-13.156-5.3086-3.2539-11.555-5.1289-18.25-5.1289-6.6914 0-12.941 1.8789-18.25 5.1289-5.2266 3.2031-9.5469 7.7461-12.484 13.156 1.0391 1.3516 2.1602 2.6328 3.3633 3.8359 7.0039 7.0039 16.684 11.34 27.371 11.34s20.367-4.3359 27.371-11.34c1.2031-1.2031 2.3281-2.4844 3.3633-3.8359zm-22.785-40.477c2.0312 2.0352 3.293 4.8438 3.293 7.9492 0 3.1016-1.2617 5.918-3.3281 7.9844-2.0625 2.0273-4.8438 3.2539-7.918 3.2539-3.1055 0-5.918-1.2617-7.9492-3.293-2.0352-2.0352-3.293-4.8438-3.293-7.9453 0-3.1055 1.2578-5.918 3.293-7.9492 2.0352-2.0352 4.8438-3.293 7.9492-3.293 3.1055 0 5.918 1.2578 7.9492 3.293z"/>
<text x="0.0" y="117.5" font-size="5.0" font-weight="bold" font-family="Arbeit Regular, Helvetica, Arial-Unicode, Arial, Sans-serif" fill="#000000"></text><text x="0.0" y="122.5" font-size="5.0" font-weight="bold" font-family="Arbeit Regular, Helvetica, Arial-Unicode, Arial, Sans-serif" fill="#000000"></text></svg>